<?xml version="1.0" encoding="UTF-8" standalone="no"?>
<!-- Created with Inkscape (http://www.inkscape.org/) -->

<svg
   width="109.40261mm"
   height="140.65704mm"
   viewBox="0 0 109.40261 140.65704"
   version="1.1"
   id="svg1"
   xml:space="preserve"
   xmlns="http://www.w3.org/2000/svg"
   xmlns:svg="http://www.w3.org/2000/svg"><defs
     id="defs1" /><g
     id="layer1"
     transform="translate(-57.527488,-53.735217)"><path
       style="fill:#ffffff"
       d="m 87.459578,194.37038 c 7.735436,-8.68386 15.933202,-16.95502 23.892492,-25.43746 3.84082,-3.32535 7.36317,-9.10137 11.26293,-10.99567 -0.98817,6.19686 -0.43545,12.62286 -0.66149,18.92155 -2.0197,2.04483 -4.03941,4.08966 -6.05912,6.13449 H 98.881818 c -3.218633,3.94679 -7.058671,7.33064 -10.3981,11.16232 2.910168,0.0718 11.27019,0.0677 10.991731,0.22946 -4.005251,0.0176 -8.010683,-0.001 -12.015871,-0.0147 z m -2.41542,-1.16858 c 6.700633,-7.78038 14.23995,-14.96173 21.175732,-22.59503 6.47161,-5.84738 11.52461,-13.26807 18.46593,-18.83957 -6.44832,8.03882 -14.26346,14.95247 -21.09643,22.69317 -6.386205,6.14255 -11.906042,13.1133 -18.425602,19.11626 z m 7.84825,-10.38595 c -0.293274,-5.26894 -0.123122,-10.55369 -0.16279,-15.82985 9.901522,-9.66835 18.873872,-20.28156 29.150172,-29.54778 0.33764,5.2776 0.0692,10.57641 0.0732,15.86324 -9.88793,9.64326 -18.94077,20.12894 -29.060602,29.51439 z m -26.63366,-19.01351 c 9.832055,-10.77687 20.081111,-21.21446 30.05957,-31.87363 9.840942,-10.1773 19.374532,-20.65495 29.354362,-30.69378 8.23261,-8.935423 16.75243,-17.751953 25.12044,-26.616432 5.57751,-5.307645 10.19987,-11.605255 16.13698,-16.512757 -3.47436,5.246111 -9.01978,9.42933 -13.18882,14.361238 -2.27644,2.263048 -4.73679,4.406573 -3.8716,7.863324 0.10532,2.069426 0.33119,4.188085 -1.74903,5.364945 -3.75358,3.79469 -7.42709,7.666981 -11.0243,11.61019 -4.83434,-0.67099 -9.26531,0.412302 -11.75725,5.114922 -4.66338,2.85998 -3.50929,10.35619 -2.66826,13.79724 2.35278,-2.50011 6.42148,-5.66113 1.78213,-0.89396 -11.86387,12.62876 -23.77119,25.21601 -35.810072,37.68061 -1.676403,1.79864 -8.716162,9.08871 -3.44634,2.84588 2.046231,-3.36529 7.067402,-5.64948 7.509548,-9.60547 -0.564709,-2.28537 1.392581,-10.0283 -1.958106,-7.43416 -6.19569,6.46559 -12.295903,13.03795 -18.532712,19.47249 -1.757811,1.60612 -4.126558,5.45612 -5.95654,5.51935 z m 26.6512,-1.07729 c -0.797201,-3.61932 1.637717,-15.63965 -3.63245,-8.05802 -1.610264,2.85118 -8.701696,8.22476 -3.125632,2.39054 6.032773,-5.90646 11.478816,-12.43019 17.530744,-18.35696 7.6771,-8.22632 15.46724,-16.34752 23.22393,-24.49514 6.55021,-6.78549 13.0021,-13.78357 19.58405,-20.594644 2.93115,-3.164409 10.24671,-11.296361 11.24785,-11.051308 -5.75653,6.819542 -12.48361,12.670301 -18.22895,19.470652 -6.04722,5.85887 -11.4883,12.27461 -17.42366,18.23863 v 12.22833 c -8.65169,9.42973 -17.62177,18.56764 -26.467977,27.81213 -0.9004,0.79746 -1.678631,1.77676 -2.707905,2.41579 z m 0.46859,-11.48176 c -0.401275,-1.00771 -0.807915,0.83778 0,0 z m 0.66146,-0.79375 c -0.676022,-0.94917 -0.675971,0.94918 0,0 z m -28.95872,8.75254 c 3.381746,-3.96697 7.223139,-7.24426 10.445296,-11.29535 12.511085,-12.88524 24.672746,-26.10027 37.190526,-38.98309 3.80305,-4.30038 7.73764,-8.53538 12.08757,-12.280442 -5.28321,7.001102 -12.2079,12.574202 -17.79814,19.318992 -7.645207,7.40242 -14.337024,15.73924 -22.226952,22.88149 -5.750521,7.19977 -12.752272,13.31363 -18.83903,20.21746 l -0.541988,0.27299 z M 124.99625,151.235 c 6.8013,-8.03499 14.52608,-15.29282 21.59637,-23.10941 2.3259,-2.80975 4.41055,-3.13797 0.97395,0.15543 -7.63061,7.33976 -14.26887,15.64257 -22.14229,22.73007 z M 62.026678,127.9576 c 2.389611,-2.59952 6.163932,-7.04514 8.280084,-7.95111 -2.105967,2.41248 -6.368247,7.83881 -8.280084,7.95111 z m 30.88828,-3.06295 c -0.422006,-9.20124 0.0326,-18.42601 -0.40421,-27.626362 -7.809481,6.752192 -13.921336,15.253962 -21.75409,21.964572 6.603475,-8.16153 14.449469,-15.28372 21.444158,-23.123643 12.377464,-12.814439 24.467924,-25.919879 36.943884,-38.629404 -0.58283,2.392558 -6.88557,6.920259 -8.67811,10.671597 8.94458,1.050065 18.06853,0.209592 27.07767,0.688506 -14.2071,15.397324 -29.14085,30.140329 -43.61535,45.300354 -3.64855,3.60423 -7.161738,7.3666 -11.013952,10.75438 z m 34.197952,-12.9597 c 4.12067,-4.82257 8.70408,-9.86819 13.4123,-13.754782 -4.12284,4.888522 -8.54433,9.553022 -13.23451,13.904792 z m 13.49376,-14.382872 c 6.55079,-7.259391 13.47038,-14.208198 20.12779,-21.365118 1.38388,1.340442 -6.21321,6.340399 -7.95656,9.344279 -3.82795,3.975851 -7.98831,9.325374 -12.17123,12.020839 z m -15.61042,-1.32292 c 7.22762,-8.317645 15.16272,-15.997861 22.58119,-24.14775 4.12065,-3.449627 7.58271,-9.179138 11.7957,-11.584833 -7.07443,7.76812 -14.32287,15.422211 -21.67689,22.948513 -3.76697,4.652185 -8.47471,8.694942 -12.43542,13.02945 z m -59.336822,-1.05262 c 2.845174,-5.226156 8.292268,-8.874816 12.112778,-13.535522 7.124109,-7.582153 14.193894,-15.250772 21.558318,-22.586009 1.907116,1.374063 -12.296832,9.798699 -2.747126,8.772323 6.042042,0.279888 12.137092,-0.232189 18.147982,0.469087 -8.41536,9.291728 -17.036431,18.397576 -25.777702,27.384371 -7.659469,-0.08099 -15.335427,0.203291 -22.980932,-0.220324 z m -8.13194,-4.7484 c 1.502957,-2.696969 5.134364,-4.388674 6.062729,-7.234742 0.0076,-5.009757 0.01515,-10.019514 0.02272,-15.029271 4.814073,0.06895 9.656568,-0.195002 14.445595,0.277342 2.282465,-2.099732 6.779574,-5.92271 2.242464,-1.150014 -7.092991,7.634985 -14.292315,15.184326 -21.532274,22.677234 l -0.887055,0.685021 -0.35414,-0.22557 z m 10.84792,-11.4161 c -0.676012,-0.949177 -0.675961,0.949194 0,0 z m 0.79375,-0.64584 c -0.505528,-0.941766 -0.711701,0.47115 0,0 z m -5.55625,11.51602 c 8.534515,-9.699571 17.716305,-18.829761 26.564388,-28.250162 2.980572,-2.249669 5.059252,-6.780708 8.360612,-7.896843 -6.73965,7.098029 -13.525963,14.325967 -20.264281,21.29406 -4.612858,5.185269 -9.56488,10.190083 -14.50932,14.98615 z m 94.993182,-8.68736 c 2.75682,-4.31967 2.08086,-0.248009 0,0 z M 82.707008,63.949347 c 1.702299,-2.883427 5.436659,-4.179205 1.081911,-0.419329 0.158639,-0.287181 -1.298555,1.316188 -1.081911,0.419329 z"
       id="path1" /></g></svg>
